<svg width="30" height="33" viewBox="0 0 30 33" fill="none" xmlns="http://www.w3.org/2000/svg">
<path d="M13.9468 11.7253V15.3418H10.659C10.0774 15.3418 9.60596 15.8604 9.60596 16.5002C9.60596 17.14 10.0774 17.6585 10.659 17.6585H13.9468V21.2751C13.9468 21.9149 14.4182 22.4334 14.9998 22.4334C15.5815 22.4334 16.0468 21.9149 16.0468 21.2751V17.6585H19.3345C19.9162 17.6585 20.3876 17.14 20.3876 16.5002C20.3876 15.8604 19.9162 15.3418 19.3345 15.3418H16.0468V11.7253C16.0468 11.0855 15.5753 10.5669 14.9998 10.5669C14.4243 10.5669 13.9468 11.0855 13.9468 11.7253Z" fill="white"/>
<path d="M4.3898 4.82878C1.56122 7.94694 0 12.0888 0 16.5C0 20.9112 1.56122 25.0531 4.39592 28.1712C7.22449 31.2827 10.9959 33 15 33C19.0041 33 22.7755 31.2827 25.6102 28.1645C28.4388 25.0531 30 20.9045 30 16.5C30 12.0955 28.4388 7.94694 25.6041 4.82878C22.7755 1.71735 19.0102 0 15 0C10.9959 0 7.22449 1.71735 4.3898 4.82878ZM27.9 16.5C27.9 20.2916 26.5592 23.8543 24.1224 26.5347C21.6857 29.2151 18.4469 30.69 15 30.69C11.5531 30.69 8.31429 29.2151 5.87755 26.5347C3.44082 23.8543 2.1 20.2916 2.1 16.5C2.1 12.7084 3.44082 9.14571 5.87755 6.46531C8.31429 3.7849 11.5531 2.31 15 2.31C18.4469 2.31 21.6857 3.7849 24.1224 6.46531C26.5592 9.14571 27.9 12.7084 27.9 16.5Z" fill="white"/>
<rect x="0.5" y="0.5" width="29" height="32" stroke="white"/>
</svg>
