<svg width="34" height="32" viewBox="0 0 34 32" fill="none" xmlns="http://www.w3.org/2000/svg">
<path opacity="0.15" d="M5.6665 26.6668H11.3332L19.8332 18.6668L14.1665 13.3335L5.6665 21.3335V26.6668Z" fill="#C4C4C4"/>
<path d="M5.6665 21.3335L4.9152 20.6264C4.71595 20.8139 4.604 21.0683 4.604 21.3335H5.6665ZM18.4165 9.3335L19.1678 8.62639C18.7528 8.23587 18.0802 8.23587 17.6652 8.62639L18.4165 9.3335ZM24.0832 14.6668L24.8344 15.3739C25.2494 14.9834 25.2494 14.3503 24.8344 13.9598L24.0832 14.6668ZM11.3332 26.6668V27.6668C11.615 27.6668 11.8852 27.5615 12.0845 27.3739L11.3332 26.6668ZM5.6665 26.6668H4.604C4.604 27.2191 5.07971 27.6668 5.6665 27.6668V26.6668ZM5.6665 5.3335V4.3335C5.07971 4.3335 4.604 4.78122 4.604 5.3335H5.6665ZM28.3332 5.3335H29.3957C29.3957 4.78122 28.92 4.3335 28.3332 4.3335V5.3335ZM28.3332 26.6668V27.6668C28.92 27.6668 29.3957 27.2191 29.3957 26.6668H28.3332ZM16.9998 25.6668C16.4131 25.6668 15.9373 26.1146 15.9373 26.6668C15.9373 27.2191 16.4131 27.6668 16.9998 27.6668V25.6668ZM4.604 16.0002C4.604 16.5524 5.07971 17.0002 5.6665 17.0002C6.2533 17.0002 6.729 16.5524 6.729 16.0002H4.604ZM6.4178 22.0406L19.1678 10.0406L17.6652 8.62639L4.9152 20.6264L6.4178 22.0406ZM17.6652 10.0406L23.3319 15.3739L24.8344 13.9598L19.1678 8.62639L17.6652 10.0406ZM23.3319 13.9598L10.5819 25.9598L12.0845 27.3739L24.8344 15.3739L23.3319 13.9598ZM11.3332 25.6668H5.6665V27.6668H11.3332V25.6668ZM6.729 26.6668V21.3335H4.604V26.6668H6.729ZM13.4152 14.0406L19.0819 19.3739L20.5844 17.9598L14.9178 12.6264L13.4152 14.0406ZM5.6665 6.3335H28.3332V4.3335H5.6665V6.3335ZM27.2707 5.3335V26.6668H29.3957V5.3335H27.2707ZM28.3332 25.6668H16.9998V27.6668H28.3332V25.6668ZM6.729 16.0002V5.3335H4.604V16.0002H6.729Z" fill="#C4C4C4"/>
</svg>
