<svg width="33" height="25" viewBox="0 0 33 25" fill="none" xmlns="http://www.w3.org/2000/svg">
<g clip-path="url(#clip0_244_992)">
<path fill-rule="evenodd" clip-rule="evenodd" d="M16.5 25C13.2366 25 10.0465 24.2669 7.3331 22.8934C4.61969 21.5199 2.50486 19.5676 1.25601 17.2835C0.00716627 14.9995 -0.319612 12.4861 0.317044 10.0614C0.9537 7.63661 2.52519 5.40933 4.83276 3.66117C7.14032 1.91302 10.0803 0.722507 13.281 0.240192C16.4817 -0.242124 19.7993 0.00541021 22.8143 0.951506C25.8293 1.8976 28.4062 3.49976 30.2193 5.55537C32.0323 7.61099 33 10.0277 33 12.5C33 14.1415 32.5732 15.767 31.744 17.2835C30.9148 18.8001 29.6994 20.1781 28.1673 21.3388C26.6351 22.4996 24.8162 23.4203 22.8143 24.0485C20.8124 24.6767 18.6668 25 16.5 25ZM24.75 16.6471C25.1011 16.9133 25.2983 17.2743 25.2983 17.6506C25.2983 18.027 25.1011 18.3879 24.75 18.6542L24.6285 18.7458C24.2758 19.0126 23.7978 19.1625 23.2994 19.1625C22.801 19.1625 22.323 19.0126 21.9703 18.7458L17.1501 15.0979C16.9738 14.9645 16.7347 14.8895 16.4854 14.8895C16.2362 14.8895 15.9971 14.9645 15.8208 15.0979L11.0132 18.7425C10.8386 18.8748 10.6313 18.9798 10.4031 19.0514C10.1749 19.1231 9.93032 19.1599 9.68332 19.1599C9.43633 19.1599 9.19175 19.1231 8.96356 19.0514C8.73538 18.9798 8.52803 18.8748 8.35341 18.7425L8.24673 18.6621C8.07143 18.5296 7.93251 18.3721 7.83802 18.1987C7.74353 18.0253 7.69535 17.8394 7.69622 17.6519C7.69709 17.4643 7.74699 17.2787 7.84309 17.1058C7.93918 16.9329 8.07954 16.7761 8.25606 16.6446L13.1147 13.005C13.2037 12.939 13.2744 12.8603 13.3227 12.7734C13.3709 12.6864 13.3958 12.5931 13.3958 12.4988C13.3958 12.4045 13.3709 12.3111 13.3227 12.2242C13.2744 12.1372 13.2037 12.0585 13.1147 11.9925L8.2577 8.35709C8.08105 8.22552 7.94059 8.06873 7.8444 7.89578C7.7482 7.72283 7.69818 7.53716 7.69726 7.34949C7.69634 7.16182 7.74453 6.97586 7.83903 6.80237C7.93352 6.62889 8.07244 6.47133 8.2478 6.33876L8.35398 6.25833C8.52858 6.12602 8.73589 6.02112 8.9641 5.94962C9.19231 5.87812 9.43691 5.84143 9.68386 5.84167C10.2031 5.84167 11.4741 6.60626 11.8135 6.86459L15.8208 9.90084C15.908 9.96702 16.0116 10.0195 16.1257 10.0553C16.2397 10.0912 16.362 10.1096 16.4854 10.1096C16.6089 10.1096 16.7312 10.0912 16.8452 10.0553C16.9593 10.0195 17.0629 9.96702 17.1501 9.90084L21.9703 6.25584C22.3229 5.98909 22.8008 5.83925 23.2991 5.83925C23.7974 5.83925 24.2753 5.98909 24.6279 6.25584L24.75 6.35126C25.1013 6.61753 25.2986 6.97857 25.2986 7.35501C25.2986 7.73145 25.1013 8.09248 24.75 8.35876L19.9502 11.9992C19.8631 12.065 19.794 12.1431 19.7469 12.2292C19.6998 12.3152 19.6755 12.4075 19.6755 12.5006C19.6755 12.5938 19.6998 12.686 19.7469 12.7721C19.794 12.8581 19.8631 12.9363 19.9502 13.0021L24.75 16.6471Z" fill="#FF0000"/>
</g>
<defs>
<clipPath id="clip0_244_992">
<rect width="33" height="25" fill="white"/>
</clipPath>
</defs>
</svg>
