<svg width="52" height="54" viewBox="0 0 52 54" fill="none" xmlns="http://www.w3.org/2000/svg">
<path d="M40.4046 0.214514C33.7881 0.157097 27.1583 -0.116184 20.5282 0.056381C12.8499 0.257812 6.85988 0.746642 2.32645 7.23259C1.14193 10.3243 0.54313 13.9341 0.257099 17.702C0.202744 18.6944 0.148093 19.7153 0.080075 20.7652C-0.164968 27.1645 0.243436 33.7656 0.107401 39C0.747185 42.4372 1.99972 45.5289 4.34144 47.8874C12.1014 55.6961 27.8935 53.2658 38.2399 52.8344C43.2091 50.9217 47.3475 49.3398 49.5665 43.343C51.3228 38.626 51.0368 32.6147 51.1594 27.5529C51.3908 17.1407 51.8265 2.77444 40.4046 0.214514Z" fill="white"/>
<path d="M37.3688 3.92465C50.5877 5.72216 46.708 25.9562 46.3403 35.7639C46.1359 41.1567 45.2241 45.3271 39.9555 47.1965C33.026 49.6557 22.8156 48.8359 15.7501 47.743C11.0259 47.0239 7.32296 45.5283 6.01607 40.3513C3.94672 32.1686 4.53215 21.0952 5.43064 12.7543C5.45796 12.5962 5.49866 12.4811 5.56667 12.3804C5.68905 -0.101764 30.4936 2.98998 37.3688 3.92465Z" fill="black"/>
<path d="M42.855 11.5323C42.8823 8.09509 38.8253 7.00228 36.647 9.11636C36.0615 9.69147 35.7892 10.5687 35.7485 11.5178C35.9662 12.7402 36.6606 13.9482 37.5591 14.6384C39.6695 16.206 42.8277 14.1207 42.855 11.5323Z" fill="white"/>
<path d="M36.824 18.2193C32.1682 10.7702 21.6581 10.0366 16.0085 16.6374C12.1558 21.1385 11.8834 28.631 14.7832 33.952C14.9466 34.0094 15.0963 34.1101 15.2326 34.2827C19.9431 39.8336 28.0568 41.847 33.8838 36.8137C39.0841 32.3126 40.6087 24.2736 36.824 18.2193Z" fill="white"/>
<path d="M18.2685 28.4299C19.9157 33.3195 25.7697 37.2022 30.4392 34.1823C39.8735 28.0848 28.7919 11.5182 21.0183 18.8666C18.2685 20.5779 17.1929 25.2227 18.2685 28.4299Z" fill="black"/>
</svg>
