<svg width="48" height="53" viewBox="0 0 48 53" fill="none" xmlns="http://www.w3.org/2000/svg">
<path d="M10.0501 35.3112C14.6859 41.4422 20.2663 46.2694 26.6355 49.685C29.0605 50.9565 32.3036 52.465 35.9167 52.7236C36.1407 52.7343 36.355 52.7451 36.5789 52.7451C39.0039 52.7451 40.9517 51.8185 42.5392 49.9113C42.5489 49.9005 42.5684 49.879 42.5781 49.8574C43.143 49.1032 43.7857 48.4244 44.4577 47.7024C44.9155 47.2176 45.3829 46.7111 45.8309 46.1939C47.9053 43.8019 47.9053 40.7634 45.8114 38.4467L39.9584 31.971C38.965 30.8288 37.7768 30.2254 36.5303 30.2254C35.2837 30.2254 34.0858 30.8288 33.0632 31.9602L29.5767 35.8176C29.2553 35.6129 28.9242 35.4297 28.6125 35.2573C28.223 35.0418 27.8626 34.8371 27.5412 34.6108C24.3663 32.3804 21.4836 29.4712 18.7275 25.7323C17.3348 23.782 16.3999 22.1442 15.7474 20.4741C16.6629 19.5582 17.5199 18.5992 18.3477 17.6618C18.6399 17.3278 18.9418 16.9938 19.2437 16.6597C20.2955 15.496 20.8603 14.1492 20.8603 12.7808C20.8603 11.4123 20.3052 10.0655 19.2437 8.90177L16.3415 5.69083C16.0006 5.3137 15.6792 4.94735 15.3481 4.57023C14.7053 3.83753 14.0334 3.08329 13.3711 2.40446C12.368 1.31619 11.1896 0.745117 9.94301 0.745117C8.70617 0.745117 7.51802 1.31619 6.47596 2.41524L2.8336 6.44508C1.50911 7.91047 0.759214 9.68834 0.603391 11.7464C0.418351 14.3216 0.846864 17.0584 1.9571 20.3663C3.66141 25.4844 6.23248 30.2362 10.0501 35.3112ZM2.97969 11.9726C3.09655 10.5396 3.59324 9.34354 4.52817 8.30914L8.15105 4.30086C8.71591 3.69746 9.3392 3.38498 9.94301 3.38498C10.5371 3.38498 11.1409 3.69746 11.696 4.32241C12.3485 4.99045 12.9621 5.69083 13.6243 6.4343C13.9554 6.81142 14.2963 7.18855 14.6372 7.57645L17.5394 10.7874C18.1432 11.4554 18.4548 12.1343 18.4548 12.8023C18.4548 13.4704 18.1432 14.1492 17.5394 14.8172C17.2375 15.1513 16.9356 15.496 16.6336 15.8301C15.7279 16.8429 14.8806 17.8019 13.9457 18.7178C13.9262 18.7393 13.9165 18.7501 13.897 18.7716C13.0887 19.666 13.2153 20.5172 13.4101 21.1637C13.4198 21.196 13.4295 21.2176 13.4393 21.2499C14.1892 23.2433 15.2312 25.1396 16.8576 27.4024C19.7793 31.3891 22.8568 34.4815 26.246 36.8628C26.6647 37.1645 27.1127 37.4016 27.5315 37.6386C27.921 37.8541 28.2814 38.0588 28.6028 38.2851C28.6417 38.3067 28.6709 38.3282 28.7099 38.3498C29.0313 38.5329 29.3429 38.6191 29.6546 38.6191C30.4337 38.6191 30.9401 38.0696 31.1057 37.8864L34.748 33.8566C35.3129 33.2316 35.9264 32.8976 36.5303 32.8976C37.2704 32.8976 37.8742 33.404 38.254 33.8566L44.1266 40.3431C45.2953 41.6361 45.2855 43.0369 44.0974 44.4053C43.6884 44.8902 43.2598 45.3535 42.8021 45.8384C42.1204 46.5711 41.4095 47.3253 40.7667 48.1765C39.6467 49.5126 38.3125 50.1376 36.5887 50.1376C36.4231 50.1376 36.2478 50.1268 36.0823 50.116C32.8879 49.8898 29.9175 48.5106 27.6873 47.3361C21.6297 44.0928 16.3123 39.4919 11.9005 33.6519C8.26792 28.8139 5.82345 24.31 4.20679 19.4828C3.20368 16.5197 2.82386 14.1384 2.97969 11.9726Z" fill="white"/>
</svg>
