<svg width="112" height="78" viewBox="0 0 112 78" fill="none" xmlns="http://www.w3.org/2000/svg">
<path d="M0 8C0 3.58172 3.58172 0 8 0H104C108.418 0 112 3.58172 112 8C112 12.4183 108.418 16 104 16H8C3.58173 16 0 12.4183 0 8Z" fill="white"/>
<path d="M0 70C0 65.5817 3.58172 62 8 62H104C108.418 62 112 65.5817 112 70C112 74.4183 108.418 78 104 78H8C3.58173 78 0 74.4183 0 70Z" fill="white"/>
<path d="M0 40C0 35.5817 3.58172 32 8 32H104C108.418 32 112 35.5817 112 40C112 44.4183 108.418 48 104 48H8C3.58173 48 0 44.4183 0 40Z" fill="white"/>
</svg>
